<svg xmlns="http://www.w3.org/2000/svg" viewBox="0 0 32 32">
  <defs>
    <linearGradient id="g" x1="0" y1="0" x2="32" y2="32" gradientUnits="userSpaceOnUse">
      <stop offset="0" stop-color="#E87B35"/>
      <stop offset="1" stop-color="#D4561E"/>
    </linearGradient>
  </defs>
  <rect width="32" height="32" rx="7" fill="url(#g)"/>
  <path d="M10 8h7.6c3.4 0 5.4 1.7 5.4 4.5 0 1.9-1.1 3.2-2.7 3.7 2.1.5 3.4 1.9 3.4 4.1 0 2.9-2.2 4.7-5.7 4.7H10V8zm3.2 6.7h3.7c1.5 0 2.4-.7 2.4-1.9 0-1.2-.9-1.9-2.4-1.9h-3.7v3.8zm0 7.5h4c1.7 0 2.7-.8 2.7-2.1s-1-2.1-2.7-2.1h-4v4.2z" fill="#fff"/>
</svg>
